<svg width="16" height="16" viewBox="0 0 16 16" fill="none" xmlns="http://www.w3.org/2000/svg">
<path d="M16 10.6876C16 8.47133 14.5067 6.53497 12.4008 5.95146C12.2684 2.86652 9.71772 0.397461 6.60077 0.397461C3.39936 0.397461 0.794922 3.0019 0.794922 6.20331C0.794922 7.24666 1.07264 8.26252 1.6 9.15437L0.816267 11.9877L3.6497 11.2041C4.46951 11.6889 5.39431 11.9619 6.3488 12.0031C6.9322 14.1091 8.86868 15.6025 11.0851 15.6025C11.9697 15.6025 12.83 15.3669 13.5859 14.9193L15.9785 15.5811L15.3167 13.1885C15.7644 12.4326 16 11.5723 16 10.6876ZM3.7903 10.2408L2.09407 10.71L2.56331 9.01377L2.45635 8.84649C1.95231 8.05789 1.68584 7.14388 1.68584 6.20331C1.68584 3.49318 3.89065 1.28838 6.60077 1.28838C9.31089 1.28838 11.5157 3.49318 11.5157 6.20331C11.5157 8.91343 9.31089 11.1182 6.60077 11.1182C5.66019 11.1182 4.7463 10.8518 3.95758 10.3477L3.7903 10.2408ZM14.7009 14.3034L13.4422 13.9551L13.2741 14.0645C12.6225 14.4878 11.8654 14.7116 11.0851 14.7116C9.34314 14.7116 7.81245 13.5853 7.27012 11.9703C9.93755 11.6628 12.0602 9.54009 12.3679 6.87254C13.9828 7.41498 15.1091 8.94568 15.1091 10.6876C15.1091 11.468 14.8853 12.225 14.462 12.8766L14.3526 13.0447L14.7009 14.3034Z" fill="#1364DE"/>
<path d="M6.15527 8.44547H7.0462V9.33639H6.15527V8.44547Z" fill="#1364DE"/>
<path d="M7.49162 4.85207C7.49162 5.10507 7.3886 5.33859 7.2016 5.5097L6.15523 6.46744V7.55453H7.04615V6.85977L7.80309 6.16699C8.17129 5.82999 8.38254 5.35077 8.38254 4.85207C8.38254 3.8695 7.58326 3.07022 6.60069 3.07022C5.61813 3.07022 4.81885 3.8695 4.81885 4.85207H5.70977C5.70977 4.36078 6.10941 3.96114 6.60069 3.96114C7.09198 3.96114 7.49162 4.36078 7.49162 4.85207Z" fill="#1364DE"/>
</svg>
